<svg xmlns="http://www.w3.org/2000/svg" width="1200" height="630" viewBox="0 0 1200 630">
  <defs>
    <linearGradient id="bg" x1="0%" y1="0%" x2="100%" y2="100%">
      <stop offset="0%" style="stop-color:#0C1520"/>
      <stop offset="100%" style="stop-color:#151F2E"/>
    </linearGradient>
  </defs>
  <rect width="1200" height="630" fill="url(#bg)"/>
  <g stroke="#E8533A" stroke-opacity="0.07" stroke-width="1">
    <line x1="0" y1="105" x2="1200" y2="105"/><line x1="0" y1="210" x2="1200" y2="210"/>
    <line x1="0" y1="315" x2="1200" y2="315"/><line x1="0" y1="420" x2="1200" y2="420"/>
    <line x1="0" y1="525" x2="1200" y2="525"/>
    <line x1="240" y1="0" x2="240" y2="630"/><line x1="480" y1="0" x2="480" y2="630"/>
    <line x1="720" y1="0" x2="720" y2="630"/><line x1="960" y1="0" x2="960" y2="630"/>
  </g>
  <rect x="80" y="80" width="4" height="470" rx="2" fill="#E8533A"/>
  <text x="108" y="138" font-family="Arial Black,sans-serif" font-weight="900" font-size="20" fill="#E8533A" letter-spacing="8">MARINAI</text>
  <text x="108" y="265" font-family="Arial Black,sans-serif" font-weight="900" font-size="74" fill="#EEE5D8" letter-spacing="-2">Growth built</text>
  <text x="108" y="355" font-family="Arial Black,sans-serif" font-weight="900" font-size="74" fill="#E8533A" letter-spacing="-2">for the AI era.</text>
  <text x="108" y="425" font-family="Arial,sans-serif" font-size="24" fill="#8899AA">AEO · SEO · Paid · Automation · Custom AI Tools</text>
  <rect x="108" y="462" width="260" height="52" rx="8" fill="#E8533A" opacity="0.12" stroke="#E8533A" stroke-width="1.5" stroke-opacity="0.5"/>
  <text x="238" y="494" font-family="Arial Black,sans-serif" font-weight="900" font-size="18" fill="#E8533A" text-anchor="middle" letter-spacing="2">BOOK A FREE CALL</text>
  <text x="1120" y="590" font-family="Arial,sans-serif" font-size="16" fill="#8899AA" opacity="0.6" text-anchor="end" letter-spacing="1">marinai.xyz</text>
</svg>
